# xmcd
#
# Track frame offsets:
#	150
#	5076
#	15311
#	27966
#	43597
#	53051
#	72116
#	85692
#	93388
#	98008
#	105990
#	114470
#	122129
#	134030
#	141246
#	149648
#	169448
#	183884
#	204452
#	216790
#	229135
#	236853
#
# Disc length: 3215 seconds
#
# Revision: 6
# Processed by: cddbd v1.5.1PL2 Copyright (c) Steve Scherf et al.
# Submitted via: EasyCDDAExtractor 9.0.0.1
#
DISCID=370c8d16
DTITLE=Elvis Presley - The Original Elvis Presley Collection 41 - Elvis as Rec
DTITLE=orded at Madison Square Garden
DYEAR=1972
DGENRE=Rock
TTITLE0=Introduction - Also Sprach Zarathustra
TTITLE1=That's All Right
TTITLE2=Proud Mary
TTITLE3=Never Been To Spain
TTITLE4=You Don't Have To Say You Love Me
TTITLE5=You've Lost That Lovin' Feelin'
TTITLE6=Polk Salad Annie
TTITLE7=Love Me
TTITLE8=All Shook Up
TTITLE9=Heartbreak Hotel
TTITLE10=Medley (Let Me Be Your) Teddy Bear-Don't Be Cruel
TTITLE11=Love Me Tender
TTITLE12=The Impossible Dream
TTITLE13=Introductions By Elvis
TTITLE14=Hound Dog
TTITLE15=Suspicious Minds
TTITLE16=For The Good Times
TTITLE17=American Trilogy
TTITLE18=Funny How Time Slips Away
TTITLE19=I Can't Stop Loving You
TTITLE20=Can't Help Falling In Love
TTITLE21=End Theme
EXTD=Live At Madison Square Garden\nDISC: 1\nUPC: 078635477627\n LABEL: RCA\n 
EXTD=ENSORECORD: 120868\n\nYEAR: 2000  ID3G:  17
EXTT0=PERFORMER: Elvis Presley\n
EXTT1=PERFORMER: Elvis Presley\n
EXTT2=PERFORMER: Elvis Presley\n
EXTT3=PERFORMER: Elvis Presley\n
EXTT4=PERFORMER: Elvis Presley\n
EXTT5=PERFORMER: Elvis Presley\n
EXTT6=PERFORMER: Elvis Presley\n
EXTT7=PERFORMER: Elvis Presley\n
EXTT8=PERFORMER: Elvis Presley\n
EXTT9=PERFORMER: Elvis Presley\n
EXTT10=PERFORMER: Elvis Presley\n
EXTT11=PERFORMER: Elvis Presley\n
EXTT12=PERFORMER: Elvis Presley\n
EXTT13=PERFORMER: Elvis Presley\n
EXTT14=PERFORMER: Elvis Presley\n
EXTT15=PERFORMER: Elvis Presley\n
EXTT16=PERFORMER: Elvis Presley\n
EXTT17=PERFORMER: Elvis Presley\n
EXTT18=PERFORMER: Elvis Presley\n
EXTT19=PERFORMER: Elvis Presley\n
EXTT20=PERFORMER: Elvis Presley\n
EXTT21=PERFORMER: Elvis Presley\n
PLAYORDER=
